<?xml version="1.0" encoding="UTF-8"?>
<svg id="Layer_1" xmlns="http://www.w3.org/2000/svg" version="1.1" viewBox="0 0 3188 2400">
  <!-- Generator: Adobe Illustrator 30.1.0, SVG Export Plug-In . SVG Version: 2.1.1 Build 136)  -->
  <defs>
    <style>
      .st0 {
        fill: red;
      }
    </style>
  </defs>
  <path d="M0,1181V0h3188v2400H0v-1219ZM1725.06,1872c9.41.33,21.03-8.03,32.64,6.04,6.72-3,12.86-4.72,19.99-5.46l20.17-2.11c3.87-.4,13.6,2.73,16.53.21,9.1-7.86,16.02-17.89,23.74-26.76,7.52-8.64,22.08-13.54,25.67-25.21,1.79-5.81.35-10.27,7.59-13.76,4.01-1.93,9.58-8.42,9.44-12.29l-.26-7.43c-.05-1.45,2.97-2.26,5.77-3.71,8.39-4.32-7.23-14.8,5.67-21.81,4.04-2.2,6.33-8.08,4.47-12.14-9.25-20.22,14.64-20.72,7.97-31.31-12.93-20.52,8.3-23.1-1.95-36.45-8-10.42-7.66-23.06-5.08-34.99l-10.12-6.93c-1.86-6.06-.6-17.14,2.76-22.2l11.37-2.78c4.26-3.58,9.7-8,16.36-5.15.35-10.08,10.64-6.28,14.96-9.37,21.26-15.18,18.28-2.92,29.49-21.51,11.93-19.78,13.62,3.53,38.25-29.38,1.29-1.73-1.14-8.5.42-9.99s4.49-3.6,7.43-5.48c13.62-8.73.54-16.91,10.55-20.88,2.13-.85,5.97-1.77,6.11-3.26.77-8.04-6.13-15.99,5.15-21.97,10.1-5.35-10.23-20.97,11.74-37.62-1.62-17.36-7.74-45.32,6.93-55.69l-.64-13.87c-.11-2.34,8.06-4.37,7.76-6.69l-1.15-8.95c-1.8-13.95,11.24-10.53,10.62-16.56l-.81-7.8-.78-7.46c-.37-3.5,12.3-3.77,9.45-12.11-3.16-9.24-1.02-16.6,7.9-20.57,7.59-3.38,13.47-21.33,13.73-29.84l8.66-8.99c-2.45-10.19.31-19.39,9.76-24.9-3.31-9.23-4.16-19.29,2.68-26.95,14.4-16.15-8.49-34.97,12.32-50.86-6.11-4.83-7.58-11.23-3.57-18.28,6.39-11.23-7.55-9.44,2.61-33.37-10.17-14.85-6.71-34.29-5.97-53.07l6.37-9.28c-1.61-2.97-4.5-6.1-3.43-7.72l4.43-6.69c-4.38-1.99-9.67-8.79-9.27-14.9l1.18-18.09c-17.14-8.42-4.3-22.09-8.88-24.31l-4.84-2.35-3.63-1.73c-6.04-2.88,18.25-4.68-22.47-31.88-24.45-16.33-16.05-36.45-38.4-29.03l-3.58-8.79c-1.84-4.52-21.73,5.22-29.15-2.22-14.59-14.63-22.13-.64-29.53-5.67-2-1.36-4.09-4.92-6.57-8.08-4.93-6.29-21.62,9.98-31.19-7.85l-10.37.34-6.68-8.64c-2.65.3-10.23,1.09-11.36-1.23-1.63-3.34-2.9-10.69-4.62-13.49-1.28-2.09-7.95-3.92-7.65-6.36l1.13-9.28.88-7.29c.14-1.18-2.54-2.06-4.97-3.35-3.91-2.09-4.86-7.32-3.48-12.68l-6.75-8.05c-.49-2.39-.21-8.49-2.12-10.05-6.52-5.31-14.42-13.42-20.28-19.59l-15.64-16.47c-6.33-6.66-14.45,1.96-21.61-12.51-9.43-19.05-17.18,1.44-31.3-13.28l-7.88-.52c-5.31-.35-3.04-12.63-13.72-11.08-16.82,2.43-34.53,3.82-50.18,3.12-2.12-.09-6.83-3.47-8.03-2.22-.96,1-2.48,2.81-4.13,4.91-9.6,12.15-16.79.44-23.65,7.66-12.12,12.77-23.41-2.14-29.13,5.12-6.56,8.32-17.15,3.29-23.81-.77-3.87-1.33-14.11,2.23-17.29-.69-22.27-20.42-20.43,4.54-47.7-13.76-4.45-2.99-14.25-.98-20.21-1.21-13.17-.5-25.81-.21-38.79.84-2.71.22-8.7-1.77-11.92-2.58-3.22,8.5-10.07,11.33-17.95,8.63-1.17-.4-4.38-.83-5.32-.29-3.69,2.14-2.16,7.8-7.11,10.58-1.29.72-5.34-.55-6.69-.01l-12.02,4.74c-6.8,2.68-12.39,5.08-16.44,11.45-8.21,12.9-19.59-.13-23,6.43l-5.4,10.38-8.46-3.67c-5.82,11.88-26.93,12.47-38.71,11.79l-56.38-3.25c-3.42-.2-8.04-5.04-9.65-7.59-7.4,9.58-23.64,7.51-33.21-.17-10.72,18.04-18.46,2.41-26.6,12.88-2.5,3.21-8.98,3.95-11.74,5.57-5.45,3.2-8.23,5.78-15.79,6.37-5.26.41-10.67,9.66-14.17,14.23l-11.98,2.22-18.87,18.61c-5.51,5.43-8.02,11.4-13.96,16.65l-15.37,13.59c-6.11,5.4-9.31,10.03-15.46,15.16-7.27,6.07-13.59,14.48-20.79,21.44-6.67,6.44-17.24,13.3-19.96,21.73-1.84,5.7-1.24,9.7-7.92,12.03l-2.31,11.42c-.44,2.16-6.3,4.92-6.77,6.43.12,3.37.55,7.63,0,9.88s-5.84,4.49-8.95,6.13c7.06,8.63,2.74,34.5-8.41,41.08,15.22,22.18-6.53,39.07,5.72,57.76,7.27,11.09,3.24,27.27,3.55,37.98,3.92,3.06,9.57,7.74,11.5,13.34l6.09,17.66c1.03,2.2,6.07,6.49,6.63,8.88-2.06,17.34,17.65,16.15,16.17,25.41-.95,5.91.62,12.88,4.44,18.21,6.13,8.57,2.28,21.65,4.88,30.53,3.67,12.53,2.81,21.81.29,34.37-2.2,11-.61,24.17-4.03,35.5-.78,2.57-4.02,7.95-3.03,10.46,3.07,7.77,3.67,20.09-1.56,28.55,7.21,9.3,10.21,19.62,6.54,31.29-3.75,11.94,5.61,7.37,10.41,27.91l31.77,31.94,10.87.49c9.38,14.87,3.06,1.29,23.32,14.02,11.28,1.34,28.66,2.32,39.61,7.07,6-2.34,14.19-4.37,19.13-1.4l24.49,14.7c13.58,8.15.95,24.74,22.34,29.01,5.62,1.12,10.77,4.06,13.52,8.93,5.27,9.35,13.09,5.62,32.64,16.98,6.04,3.51,9,7.18,16.45,5.99,9.02-1.44,10.75,8.36,15.63,9.47,6.39,1.45,17.12-13.96,29.94-.1,2.9-5.43,9.11-9.35,16.15-9.54l15.46-.41c3.15-.13,7.97-9.2,11.34-7.89,7.55,2.93,14.88,8.84,19.2,15.27,2.18,3.25-.84,12.81.36,15.7,3.01,2.44,9.7,6.13,9.87,10.03.48,11.28-12.8,8.26-10.68,16.51,1.21,4.72-1.13,9.52-5.21,11.5-8.57,4.16-9.55,10.64-11.89,18.78-1.36,4.71-12.92,9.62-13.51,14.45-.84,6.85-2.99,13.17-8.66,16.1l-.37,24.04c-.66,43.03-3.1,24.17,9.29,47.45l8.71,16.37c4.15,7.79,13.56,16.99,20.63,23.77l17.42,16.7,14.96,4.84c7.29,2.36,13.28,14.61,18.76,21.17,7.59-.81,13.61,1.98,17.51,8.98,7.94,14.25,12.48,1.35,22.98,14.81l10.64.29,4.92,7.5c2.66,4.06,14.2-4.5,24.76,6.87l9.78,1.06,4.7,9.69c6.9-1.03,12.86.01,15.82,5.93l12,3.79c9.88,12.27,20.57-.35,26.19,9.34,1.53,2.65,2.23,4.84,3.29,4.65l5.15-.89c20.81-3.59,9.98,12.3,26.13,8.09,3.14-.82,9-2.08,10.31-.03l5,7.86c1.62,2.54,9.26-.32,12.51-.59l6.03-.5c2.9-.24,3.43,10.21,6.44,10.32l-.02-.04Z"/>
  <path class="st0" d="M1725.06,1872c-3.01-.1-3.54-10.56-6.44-10.32l-6.03.5c-3.25.27-10.89,3.13-12.51.59l-5-7.86c-1.31-2.05-7.17-.79-10.31.03-16.15,4.22-5.32-11.68-26.13-8.09l-5.15.89c-1.06.18-1.76-2-3.29-4.65-5.62-9.69-16.31,2.94-26.19-9.34l-12-3.79c-2.96-5.91-8.92-6.96-15.82-5.93l-4.7-9.69-9.78-1.06c-10.56-11.36-22.1-2.81-24.76-6.87l-4.92-7.5-10.64-.29c-10.5-13.46-15.05-.56-22.98-14.81-3.9-7-9.92-9.79-17.51-8.98-5.48-6.56-11.48-18.82-18.76-21.17l-14.96-4.84-17.42-16.7c-7.07-6.77-16.48-15.98-20.63-23.77l-8.71-16.37c-12.39-23.28-9.95-4.41-9.29-47.45l.37-24.04c5.67-2.93,7.82-9.24,8.66-16.1.59-4.83,12.15-9.73,13.51-14.45,2.34-8.14,3.32-14.62,11.89-18.78,4.08-1.98,6.43-6.78,5.21-11.5-2.12-8.26,11.16-5.23,10.68-16.51-.17-3.89-6.86-7.59-9.87-10.03-1.2-2.89,1.82-12.45-.36-15.7-4.32-6.43-11.65-12.34-19.2-15.27-3.37-1.31-8.18,7.76-11.34,7.89l-15.46.41c-7.04.19-13.25,4.12-16.15,9.54-12.83-13.86-23.56,1.55-29.94.1-4.88-1.11-6.6-10.9-15.63-9.47-7.45,1.19-10.41-2.48-16.45-5.99-19.55-11.36-27.37-7.63-32.64-16.98-2.75-4.87-7.9-7.81-13.52-8.93-21.39-4.27-8.77-20.86-22.34-29.01l-24.49-14.7c-4.94-2.97-13.14-.94-19.13,1.4-10.96-4.75-28.33-5.73-39.61-7.07-20.25-12.74-13.93.85-23.32-14.02l-10.87-.49-31.77-31.94c-4.8-20.55-14.16-15.97-10.41-27.91,3.67-11.67.67-21.99-6.54-31.29,5.22-8.47,4.63-20.79,1.56-28.55-.99-2.51,2.25-7.89,3.03-10.46,3.42-11.33,1.82-24.51,4.03-35.5,2.52-12.56,3.37-21.84-.29-34.37-2.6-8.89,1.25-21.96-4.88-30.53-3.82-5.34-5.38-12.3-4.44-18.21,1.48-9.26-18.23-8.07-16.17-25.41-.55-2.39-5.6-6.68-6.63-8.88l-6.09-17.66c-1.93-5.6-7.58-10.28-11.5-13.34-.3-10.71,3.72-26.89-3.55-37.98-12.25-18.69,9.49-35.58-5.72-57.76,11.15-6.58,15.48-32.45,8.41-41.08,3.1-1.64,8.39-3.88,8.95-6.13s.13-6.51,0-9.88c.47-1.51,6.33-4.27,6.77-6.43l2.31-11.42c6.69-2.33,6.08-6.33,7.92-12.03,2.71-8.42,13.29-15.28,19.96-21.73,7.2-6.96,13.52-15.37,20.79-21.44,6.15-5.14,9.35-9.76,15.46-15.16l15.37-13.59c5.94-5.25,8.45-11.21,13.96-16.65l18.87-18.61,11.98-2.22c3.51-4.57,8.92-13.82,14.17-14.23,7.56-.59,10.34-3.17,15.79-6.37,2.76-1.62,9.24-2.36,11.74-5.57,8.14-10.46,15.88,5.16,26.6-12.88,9.57,7.67,25.81,9.74,33.21.17,1.62,2.55,6.23,7.39,9.65,7.59l56.38,3.25c11.78.68,32.89.09,38.71-11.79l8.46,3.67,5.4-10.38c3.41-6.57,14.79,6.46,23-6.43,4.05-6.37,9.65-8.76,16.44-11.45l12.02-4.74c1.35-.53,5.4.74,6.69.01,4.95-2.78,3.43-8.45,7.11-10.58.94-.54,4.15-.11,5.32.29,7.88,2.69,14.73-.14,17.95-8.63,3.22.82,9.21,2.8,11.92,2.58,12.99-1.05,25.63-1.34,38.79-.84,5.96.23,15.76-1.78,20.21,1.21,27.27,18.31,25.43-6.66,47.7,13.76,3.19,2.92,13.42-.64,17.29.69,6.66,4.05,17.24,9.09,23.81.77,5.73-7.26,17.02,7.65,29.13-5.12,6.85-7.22,14.05,4.49,23.65-7.66,1.65-2.1,3.17-3.91,4.13-4.91,1.21-1.25,5.91,2.12,8.03,2.22,15.66.7,33.36-.69,50.18-3.12,10.68-1.54,8.41,10.74,13.72,11.08l7.88.52c14.12,14.72,21.87-5.77,31.3,13.28,7.16,14.47,15.28,5.85,21.61,12.51l15.64,16.47c5.86,6.17,13.75,14.28,20.28,19.59,1.91,1.55,1.63,7.66,2.12,10.05l6.75,8.05c-1.37,5.37-.43,10.6,3.48,12.68,2.43,1.3,5.12,2.17,4.97,3.35l-.88,7.29-1.13,9.28c-.3,2.45,6.37,4.27,7.65,6.36,1.72,2.8,2.99,10.15,4.62,13.49,1.13,2.32,8.71,1.52,11.36,1.23l6.68,8.64,10.37-.34c9.57,17.83,26.26,1.56,31.19,7.85,2.48,3.16,4.56,6.72,6.57,8.08,7.4,5.03,14.94-8.96,29.53,5.67,7.42,7.44,27.31-2.3,29.15,2.22l3.58,8.79c22.34-7.42,13.95,12.7,38.4,29.03,40.72,27.2,16.43,29,22.47,31.88l3.63,1.73,4.84,2.35c4.58,2.22-8.27,15.89,8.88,24.31l-1.18,18.09c-.4,6.11,4.89,12.91,9.27,14.9l-4.43,6.69c-1.07,1.62,1.82,4.75,3.43,7.72l-6.37,9.28c-.74,18.78-4.2,38.22,5.97,53.07-10.15,23.93,3.78,22.14-2.61,33.37-4.01,7.05-2.54,13.45,3.57,18.28-20.81,15.89,2.07,34.7-12.32,50.86-6.83,7.67-5.99,17.72-2.68,26.95-9.45,5.51-12.21,14.71-9.76,24.9l-8.66,8.99c-.26,8.51-6.15,26.46-13.73,29.84-8.91,3.97-11.06,11.33-7.9,20.57,2.86,8.34-9.81,8.61-9.45,12.11l.78,7.46.81,7.8c.63,6.04-12.42,2.62-10.62,16.56l1.15,8.95c.3,2.32-7.87,4.35-7.76,6.69l.64,13.87c-14.67,10.37-8.55,38.34-6.93,55.69-21.97,16.65-1.64,32.27-11.74,37.62-11.28,5.98-4.38,13.94-5.15,21.97-.14,1.49-3.98,2.41-6.11,3.26-10.01,3.97,3.07,12.15-10.55,20.88-2.94,1.88-5.86,4-7.43,5.48s.87,8.26-.42,9.99c-24.63,32.91-26.32,9.6-38.25,29.38-11.21,18.59-8.23,6.33-29.49,21.51-4.32,3.08-14.61-.71-14.96,9.37-6.66-2.85-12.1,1.57-16.36,5.15l-11.37,2.78c-3.35,5.06-4.61,16.15-2.76,22.2l10.12,6.93c-2.58,11.93-2.92,24.57,5.08,34.99,10.25,13.35-10.99,15.93,1.95,36.45,6.67,10.59-17.23,11.1-7.97,31.31,1.86,4.06-.43,9.94-4.47,12.14-12.9,7.01,2.72,17.49-5.67,21.81-2.8,1.44-5.82,2.26-5.77,3.71l.26,7.43c.13,3.87-5.43,10.36-9.44,12.29-7.24,3.48-5.8,7.95-7.59,13.76-3.6,11.66-18.15,16.57-25.67,25.21-7.72,8.86-14.64,18.9-23.74,26.76-2.92,2.53-12.66-.61-16.53-.21l-20.17,2.11c-7.12.74-13.26,2.46-19.99,5.46-11.61-14.07-23.23-5.72-32.64-6.04l.02.04ZM1718.4,1298.92c11.12-13.61,22.5-25.44,36.11-36.49,5.84-4.74,8.83-9.4,8.29-17.96l9.24-4.11c-4.39-19.5,2.21-5.72,8.05-28.37l7.24-6.55-.02-10.19c21.82-17.06-1.61-24.34,11.94-34.16,13.96-10.11-6.64-29.52,10.51-40.67,2.88-26.66,3.31-52.16,2.31-79.43-.19-5.34-5.2-10.66-8.88-14.26-2.18-9.44,8.62-20.88-7.39-28.39l-2.18-12.16c-21.9-13.26-16.95-27.77-36.36-27.77l-6.18-8c-8.83-5.28-17.6,3.2-24.78,6.67l-17.88,8.65c-13.43,6.5-25.63,14.16-34.39,27.02-.23,8.49-3.73,17.67-11.67,21.24-6.79,3.05-4.5,10.06-6.84,13.78-3.3,5.22-10.52,9.11-7.07,17.19.61,1.42,1.63,6.14.41,6.98l-5.36,3.67c-1.47,1.01-4.98,2.9-4.92,4.37.3,7.54,4.15,11.01,2.65,13.99-5.24,10.45-7.69-1.35-11.27,25.05-1.19,8.82-.63,17.11,1.93,24.89-3.24,4.83-2.05,10.1-2.12,15.9s-.35,10.41,1.27,16.16c-.72,1.1-5.58,7.34-5.51,10.1.3,11.85-1.66,29.76,1.48,40.42,2.7,9.17,10.47,13.21,4.06,23.91-3.53,5.9,1.2,13.83,5.22,19.16l5.56,14.35,17.52,14.67c6.62,5.54,11.04,11.23,16.05,19.27,24.57,6.31,18.22,4.75,43.02,1.05l-.04.02ZM1972.26,1444.31l4.96-5.13c4.09-4.23,8.13-8.08,12.06-11.69l8.7,8.38,13.07-15.13c9.88-11.44,13.48-25.52,10.59-40.23,7.39-15.47,7.39-35.46,6.48-52.5-.21-3.83,1.79-13.57-1.47-15.72-6.77-4.47-16.13-4.48-22.83-3.24l-6.4,14.58c-.84,1.91-6.94,4.66-6.6,6.72,2.03,12-7.24,23.87-14.41,32.25-7.9,9.23-10.42,23.51-12.57,34.89-11.55,11.6-4.06,16.03-5.76,33.28l14.16,13.55h.02ZM1622.75,1581.26c13.97-.61,25.8-6.47,29.65-18.64,5.59-17.64,13.94-26.83,1.11-51.43,2.69-13.96-13.68-27.54-21.86-25.91-3.49.7-8.65,4.06-11.35,6.94-22.8,24.33-9.12,26.59-17.15,47.58-2.77,7.24-2.05,12.41,1.29,19.2,4.32,8.78,9.16,16.38,18.3,22.26h0Z"/>
  <path d="M1718.4,1298.92c-24.8,3.7-18.45,5.26-43.02-1.05-5.01-8.04-9.43-13.73-16.05-19.27l-17.52-14.67-5.56-14.35c-4.02-5.33-8.75-13.26-5.22-19.16,6.41-10.7-1.35-14.74-4.06-23.91-3.14-10.66-1.18-28.57-1.48-40.42-.07-2.76,4.79-9,5.51-10.1-1.61-5.76-1.34-10.44-1.27-16.16s-1.11-11.07,2.12-15.9c-2.56-7.78-3.12-16.07-1.93-24.89,3.57-26.4,6.02-14.6,11.27-25.05,1.5-2.98-2.35-6.45-2.65-13.99-.06-1.47,3.45-3.36,4.92-4.37l5.36-3.67c1.22-.84.19-5.56-.41-6.98-3.44-8.08,3.78-11.97,7.07-17.19,2.35-3.71.06-10.73,6.84-13.78,7.95-3.57,11.44-12.74,11.67-21.24,8.76-12.86,20.96-20.52,34.39-27.02l17.88-8.65c7.18-3.47,15.95-11.95,24.78-6.67l6.18,8c19.41,0,14.47,14.5,36.36,27.77l2.18,12.16c16.01,7.52,5.21,18.95,7.39,28.39,3.68,3.6,8.69,8.92,8.88,14.26.99,27.27.57,52.77-2.31,79.43-17.16,11.15,3.44,30.55-10.51,40.67-13.56,9.82,9.88,17.11-11.94,34.16l.02,10.19-7.24,6.55c-5.83,22.65-12.43,8.87-8.05,28.37l-9.24,4.11c.55,8.56-2.45,13.22-8.29,17.96-13.6,11.05-24.99,22.87-36.11,36.49l.04-.02Z"/>
  <path d="M1972.26,1444.31l-14.16-13.55c1.7-17.25-5.79-21.69,5.76-33.28,2.14-11.37,4.67-25.66,12.57-34.89,7.18-8.38,16.44-20.25,14.41-32.25-.35-2.06,5.76-4.81,6.6-6.72l6.4-14.58c6.7-1.24,16.06-1.22,22.83,3.24,3.26,2.15,1.26,11.89,1.47,15.72.92,17.05.91,37.03-6.48,52.5,2.89,14.71-.71,28.8-10.59,40.23l-13.07,15.13-8.7-8.38c-3.93,3.6-7.97,7.46-12.06,11.69l-4.96,5.13h-.02Z"/>
  <path d="M1622.75,1581.26c-9.14-5.89-13.98-13.49-18.3-22.26-3.34-6.79-4.06-11.96-1.29-19.2,8.02-20.99-5.66-23.24,17.15-47.58,2.7-2.88,7.86-6.24,11.35-6.94,8.17-1.63,24.55,11.96,21.86,25.91,12.84,24.6,4.48,33.78-1.11,51.43-3.86,12.17-15.68,18.02-29.65,18.64h0Z"/>
</svg>