<?xml version="1.0" encoding="UTF-8"?>
<svg id="Layer_1" data-name="Layer 1" xmlns="http://www.w3.org/2000/svg" viewBox="0 0 1631.75 364.52">
  <defs>
    <style>
      .cls-1 {
        fill: #f4f4f4;
      }
    </style>
  </defs>
  <path class="cls-1" d="M0,.52h150.8l106.6,106.6v150.8l-106.6,106.6H0V.52ZM133.12,321.88l81.12-81.64v-115.44l-81.12-81.64H42.64v278.72h90.48Z"/>
  <path class="cls-1" d="M310.96.52h217.36v42.64h-171.08v114.4h149.76v43.16h-149.76v121.16h171.08v42.64h-217.36V.52Z"/>
  <path class="cls-1" d="M729.55.52h42.64v255.84L877.76.52h44.72v255.32L1025.96.52h46.28l-148.2,364h-44.72V108.68l-105.04,255.84h-44.72V.52Z"/>
  <path class="cls-1" d="M1114.87.52h217.36v42.64h-171.08v114.4h149.76v43.16h-149.76v121.16h171.08v42.64h-217.36V.52Z"/>
  <path class="cls-1" d="M1481.99,42.64h-63.96v107.12h-43.16V0h256.88v149.76h-42.64V42.64h-64.48v321.88h-42.64V42.64Z"/>
</svg>