<?xml version="1.0" encoding="UTF-8"?>
<svg id="Layer_1" data-name="Layer 1" xmlns="http://www.w3.org/2000/svg" viewBox="0 0 1663.99 884">
  <defs>
    <style>
      .cls-1 {
        fill: #f4f4f4;
      }
    </style>
  </defs>
  <path class="cls-1" d="M215.8,309.4l-99.32-58.24-66.56,112.84H0L214.24,0h44.72v364h-43.16v-54.6ZM215.8,259.48V81.64l-78,132.6,78,45.24Z"/>
  <path class="cls-1" d="M322.92,0h63.96l162.24,311.48V0h42.64v364h-63.96L365.56,52.52v311.48h-42.64V0Z"/>
  <path class="cls-1" d="M839.79,309.4l-99.32-58.24-66.56,112.84h-49.92L838.23,0h44.72v364h-43.16v-54.6ZM839.79,259.48V81.64l-78,132.6,78,45.24Z"/>
  <path class="cls-1" d="M946.91,0h42.64v133.64L1214.71,0l21.84,36.92-244.4,145.08,244.4,145.08-21.84,36.92-225.16-133.64v133.64h-42.64V0Z"/>
  <path class="cls-1" d="M1283.34,0h42.64v364h-42.64V0Z"/>
  <path class="cls-1" d="M1394.61,0h63.96l162.24,311.48V0h42.64v364h-63.96l-162.24-311.48v311.48h-42.64V0Z"/>
  <path class="cls-1" d="M32.24,520h150.8l106.6,106.6v150.8l-106.6,106.6H32.24v-364ZM165.36,841.36l81.12-81.64v-115.44l-81.12-81.64h-90.48v278.72h90.48Z"/>
  <path class="cls-1" d="M343.2,520h217.36v42.64h-171.08v114.4h149.76v43.16h-149.76v121.16h171.08v42.64h-217.36v-364Z"/>
  <path class="cls-1" d="M761.79,520h42.64v255.84l105.56-255.84h44.72v255.32l103.48-255.32h46.28l-148.2,364h-44.72v-255.84l-105.04,255.84h-44.72v-364Z"/>
  <path class="cls-1" d="M1147.11,520h217.36v42.64h-171.08v114.4h149.76v43.16h-149.76v121.16h171.08v42.64h-217.36v-364Z"/>
  <path class="cls-1" d="M1514.23,562.12h-63.96v107.12h-43.16v-149.76h256.88v149.76h-42.64v-107.12h-64.48v321.88h-42.64v-321.88Z"/>
</svg>