<svg xmlns="http://www.w3.org/2000/svg" viewBox="0 12.069999694824219 198.64999389648438 36.369998931884766" data-asc="0.96875" width="198.64999389648438" height="36.369998931884766"><defs/><g fill="#ffffff"><g transform="translate(0, 0)"><path d="M10.65 48.44L0 48.44L12.00 12.07L25.50 12.07L37.50 48.44L26.85 48.44L18.89 22.09L18.61 22.09L10.65 48.44M8.66 34.09L28.69 34.09L28.69 41.48L8.66 41.48L8.66 34.09ZM72.44 12.07L72.44 48.44L64.20 48.44L51.07 29.33L50.85 29.33L50.85 48.44L40.98 48.44L40.98 12.07L49.36 12.07L62.29 31.11L62.57 31.11L62.57 12.07L72.44 12.07ZM86.58 48.44L75.92 48.44L87.93 12.07L101.42 12.07L113.42 48.44L102.77 48.44L94.82 22.09L94.53 22.09L86.58 48.44M84.59 34.09L104.62 34.09L104.62 41.48L84.59 41.48L84.59 34.09ZM116.90 48.44L116.90 12.07L126.78 12.07L126.78 26.78L127.27 26.78L138.21 12.07L149.72 12.07L137.43 28.27L150 48.44L138.21 48.44L130.04 34.80L126.78 39.06L126.78 48.44L116.90 48.44ZM162.50 12.07L162.50 48.44L152.63 48.44L152.63 12.07L162.50 12.07ZM198.65 12.07L198.65 48.44L190.41 48.44L177.27 29.33L177.06 29.33L177.06 48.44L167.19 48.44L167.19 12.07L175.57 12.07L188.49 31.11L188.78 31.11L188.78 12.07L198.65 12.07Z"/></g></g></svg>