<?xml version="1.0" encoding="UTF-8"?>
<svg id="Layer_1" xmlns="http://www.w3.org/2000/svg" version="1.1" viewBox="0 0 1467.16 1400.64">
  <!-- Generator: Adobe Illustrator 30.0.0, SVG Export Plug-In . SVG Version: 2.1.1 Build 123)  -->
  <defs>
    <style>
      .st0 {
        fill: #fff;
      }
    </style>
  </defs>
  <polygon class="st0" points="733.58 64.55 891.39 550.24 1402.06 550.24 988.92 850.41 1146.73 1336.09 733.58 1035.92 320.44 1336.09 478.24 850.41 65.1 550.24 575.77 550.24 733.58 64.55"/>
  <path d="M1146.73,1390.09c-11.14,0-22.28-3.44-31.74-10.31l-381.41-277.11-381.4,277.11c-18.93,13.75-44.55,13.75-63.48,0-18.93-13.75-26.85-38.12-19.62-60.37l145.68-448.37L33.36,593.93c-18.93-13.75-26.85-38.12-19.62-60.37,7.23-22.25,27.96-37.31,51.36-37.31h471.44L682.22,47.87c7.23-22.25,27.96-37.31,51.36-37.31s44.13,15.06,51.36,37.31l145.69,448.37h471.44c23.39,0,44.13,15.06,51.36,37.31,7.23,22.25-.69,46.62-19.62,60.37l-381.4,277.11,145.69,448.36c7.23,22.25-.69,46.62-19.62,60.37-9.46,6.88-20.6,10.31-31.74,10.31ZM231.29,604.24l278.69,202.48c18.93,13.75,26.85,38.12,19.62,60.37l-106.45,327.62,278.69-202.48c18.93-13.75,44.55-13.75,63.48,0l278.7,202.48-106.45-327.62c-7.23-22.25.69-46.62,19.62-60.37l278.69-202.48h-344.48c-23.39,0-44.13-15.06-51.36-37.31l-106.45-327.63-106.45,327.63c-7.23,22.25-27.96,37.31-51.36,37.31H231.29Z"/>
</svg>