<?xml version="1.0" encoding="UTF-8"?>
<svg id="Layer_2" data-name="Layer 2" xmlns="http://www.w3.org/2000/svg" viewBox="0 0 23.63 29.49">
  <defs>
    <style>
      .cls-1 {
        fill: #231f20;
      }

      .cls-2 {
        fill: #fff;
      }
    </style>
  </defs>
  <path class="cls-2" d="M4.35,27.99c-1.57,0-2.85-1.28-2.85-2.85V4.35c0-1.57,1.28-2.85,2.86-2.85.75,0,1.47.3,2.01.84l14.93,14.93c.68.68.97,1.66.77,2.6s-.85,1.72-1.75,2.07l-1.69.66c-.33.13-.68.2-1.04.2-.76,0-1.48-.3-2.02-.84l-.84-.84c.18.5.23,1.04.12,1.58-.2.95-.85,1.72-1.75,2.07l-7.71,3.02c-.33.13-.69.2-1.04.2h0ZM8.86,18.53l.88-.35c.33-.13.68-.2,1.04-.2s.68.06.99.18l-2.91-2.91v3.28Z"/>
  <path class="cls-1" d="M4.36,3c.33,0,.67.12.95.4l14.93,14.93c.69.69.44,1.86-.46,2.21l-1.69.66c-.16.06-.33.09-.49.09-.35,0-.7-.14-.96-.4l-6.96-6.96c-.28-.28-.61-.4-.95-.4-.69,0-1.36.54-1.36,1.35v3.85c0,.78.64,1.35,1.35,1.35.16,0,.33-.03.49-.09l1.08-.42c.16-.06.33-.09.49-.09.35,0,.7.14.96.4l1.28,1.28c.69.69.44,1.86-.46,2.21l-7.71,3.02c-.16.06-.33.09-.49.09-.71,0-1.35-.58-1.35-1.35V4.35c0-.81.67-1.35,1.36-1.35M4.36,0S4.36,0,4.36,0C3.25,0,2.19.42,1.37,1.18c-.89.83-1.37,1.95-1.37,3.18v20.78c0,2.4,1.95,4.35,4.35,4.35.54,0,1.08-.1,1.59-.3l7.71-3.02c1.04-.41,1.87-1.19,2.34-2.17.5.2,1.05.3,1.61.3s1.08-.1,1.59-.3l1.69-.66c1.37-.54,2.37-1.72,2.67-3.16.3-1.44-.14-2.92-1.18-3.97L7.43,1.28C6.61.45,5.52,0,4.36,0h0Z"/>
</svg>